<svg xmlns="http://www.w3.org/2000/svg" viewBox="0 0 40 40"><defs><style>.cls-1{fill:#272525;}</style></defs><title>элементы</title><g id="Designed_By_Freepik" data-name="Designed By Freepik"><path class="cls-1" d="M11.22,30.18a.72.72,0,0,1-.72.72H9.72A.72.72,0,0,1,9,30.18V28.57H8.17l-.2,0v1.63a1.76,1.76,0,0,0,1.75,1.75h.78a1.75,1.75,0,0,0,1.74-1.75V28.57h-1Z"/><path class="cls-1" d="M31.39,28.57v2a.72.72,0,0,1-.72.72H29.9a.73.73,0,0,1-.73-.72v-2h-1v2a1.74,1.74,0,0,0,1.75,1.74h.77a1.74,1.74,0,0,0,1.75-1.74V28.43a1.31,1.31,0,0,1-.59.14Z"/><path class="cls-1" d="M9,25.25V19.67a.71.71,0,0,1,.68-.74h21a.71.71,0,0,1,.68.74v5.58h.44a1.32,1.32,0,0,1,.59.15V19.67a1.74,1.74,0,0,0-1.71-1.77h-.43V15.31a1.93,1.93,0,0,0,.77.17,1.39,1.39,0,0,0,1.52-1.26V12.07a1.39,1.39,0,0,0-1.52-1.25,1.77,1.77,0,0,0-.77.17V9.72a1.92,1.92,0,0,0-1.75-2.06H11.86a1.92,1.92,0,0,0-1.75,2.06V11a2.11,2.11,0,0,0-.73-.13,1.45,1.45,0,0,0-1.6,1.25v2.15a1.45,1.45,0,0,0,1.6,1.26,1.9,1.9,0,0,0,.73-.14V17.9H9.68A1.74,1.74,0,0,0,8,19.67v5.6l.2,0ZM30.56,12.07c0-.07.19-.22.49-.22s.49.15.49.22v2.15c0,.07-.19.23-.49.23s-.49-.16-.49-.23ZM11.14,9.72c0-.56.33-1,.72-1H28.53c.39,0,.72.48.72,1V17.9H11.14ZM10,14.22c0,.06-.21.23-.58.23s-.56-.17-.57-.23V12.07c0-.05.2-.22.57-.22a.67.67,0,0,1,.58.22Z"/><path class="cls-1" d="M31.83,25.25H8.17l-.2,0a1.34,1.34,0,0,0-1.14,1.32v.65A1.33,1.33,0,0,0,8,28.55l.2,0H31.83a1.31,1.31,0,0,0,.59-.14,1.34,1.34,0,0,0,.75-1.19v-.65a1.34,1.34,0,0,0-.75-1.19A1.32,1.32,0,0,0,31.83,25.25Zm.59,2a.59.59,0,0,1-.59.58H8.17a.59.59,0,0,1-.59-.58v-.65A.6.6,0,0,1,8.17,26H31.83a.6.6,0,0,1,.59.59Z"/><path class="cls-1" d="M27.32,10.19H13.59a1.18,1.18,0,0,0-1.18,1.19v4a1.18,1.18,0,0,0,1.18,1.18H27.32a1.18,1.18,0,0,0,1.18-1.18v-4A1.18,1.18,0,0,0,27.32,10.19Zm.67,5.2a.67.67,0,0,1-.67.67H13.59a.67.67,0,0,1-.67-.67v-4a.67.67,0,0,1,.67-.67H27.32a.67.67,0,0,1,.67.67Z"/><path class="cls-1" d="M13.6,20.55A1.46,1.46,0,1,0,15.06,22,1.46,1.46,0,0,0,13.6,20.55Zm0,2.4a.94.94,0,1,1,1-.94A.95.95,0,0,1,13.6,23Z"/><path class="cls-1" d="M27.3,20.55A1.46,1.46,0,1,0,28.76,22,1.46,1.46,0,0,0,27.3,20.55Zm0,2.4a.94.94,0,1,1,.94-.94A.94.94,0,0,1,27.3,23Z"/></g></svg>