<svg xmlns="http://www.w3.org/2000/svg" viewBox="0 0 40 40"><defs><style>.cls-1{fill:#272525;}</style></defs><title>элементы</title><g id="Designed_By_Freepik" data-name="Designed By Freepik"><path class="cls-1" d="M28.19,13.59v-.1h-.44c-.17-.4-.75-.89-3.21-1.27a47.38,47.38,0,0,0-6.94-.45,47.33,47.33,0,0,0-6.93.45c-2.49.39-3.06.88-3.22,1.29H7.36v.55A13.23,13.23,0,0,0,11,23.4c-1.84.5-2.77,1.18-2.77,2,0,2.2,6.23,2.79,9.53,2.79s9.53-.59,9.53-2.79c0-.86-.93-1.55-2.78-2l.36-.38a12.25,12.25,0,0,0,1.83.16,6.3,6.3,0,0,0,4.16-1.31,5.21,5.21,0,0,0,1.76-4.14C32.64,15.05,30.27,13.83,28.19,13.59Zm-.11,2.31a2.11,2.11,0,0,1,1.8,2,2.91,2.91,0,0,1-1,2.33,3.78,3.78,0,0,1-2.53.75A13.63,13.63,0,0,0,28.08,15.9ZM17.6,12.8c4.86,0,8.21.55,9,1-.84.44-4.19,1-9,1s-8.2-.55-9-1C9.4,13.35,12.74,12.8,17.6,12.8Zm8.68,12.64c0,.62-3.23,1.76-8.5,1.76s-8.51-1.14-8.51-1.76c0-.25.72-.78,2.67-1.21a9.12,9.12,0,0,0,11.67,0C25.57,24.66,26.28,25.19,26.28,25.44Zm-8.5-.13c-5,0-9-4.59-9.37-10.48a10.71,10.71,0,0,0,2.26.54,47.33,47.33,0,0,0,6.93.45,47.38,47.38,0,0,0,6.94-.45,8.91,8.91,0,0,0,2.62-.7C26.89,20.65,22.81,25.31,17.78,25.31Zm12.44-4.23a6,6,0,0,1-4.56,1l.08-.12a6.45,6.45,0,0,0,.71,0l.47,0a4.43,4.43,0,0,0,2.65-1,3.67,3.67,0,0,0,1.25-2.18,4.77,4.77,0,0,0,.08-.94,3.2,3.2,0,0,0-2.73-3,1.77,1.77,0,0,0,0-.23,6.07,6.07,0,0,1,1.52.42,2.8,2.8,0,0,1,1.92,2.68A4.2,4.2,0,0,1,30.22,21.08Z"/></g></svg>