<svg xmlns="http://www.w3.org/2000/svg" viewBox="0 0 40 40"><defs><style>.cls-1{fill:#272525;}</style></defs><title>элементы</title><g id="Designed_By_Freepik" data-name="Designed By Freepik"><path class="cls-1" d="M28.92,10.28h-17a.51.51,0,0,0-.52.51V22.28a.51.51,0,0,0,.52.51h17a.51.51,0,0,0,.51-.51V10.79A.51.51,0,0,0,28.92,10.28Zm-.51,11.49h-16V11.3h16Z"/><path class="cls-1" d="M36.26,28.19a0,0,0,0,0,0,0s0,0,0-.06v0l0-.06v0l-.06-.07v0l-.06,0,0,0,0,0-3.86-1.91V8.68a.51.51,0,0,0-.51-.51H9.18a.51.51,0,0,0-.51.51V25.91L4.93,27.82l0,0,0,0a.1.1,0,0,0,0,0l0,0L4.74,28h0l0,.07,0,0s0,0,0,.06v0s0,0,0,.06v1.41a.51.51,0,0,0,.51.51h30.6a.51.51,0,0,0,.51-.51V28.25A.13.13,0,0,0,36.26,28.19ZM9.69,9.19H31.11V25.72H9.69ZM9.3,26.74H31.5l2.08,1H7.28Zm26,2.41H5.67v-.37H35.25Z"/><path class="cls-1" d="M20.6,23.08a1.1,1.1,0,1,0,1.1,1.1A1.09,1.09,0,0,0,20.6,23.08Zm0,1.58a.49.49,0,1,1,.49-.48A.49.49,0,0,1,20.6,24.66Z"/></g></svg>