<svg width="86" height="16" viewBox="0 0 86 16" fill="none" xmlns="http://www.w3.org/2000/svg">
<path d="M2.19485 4.9917L0 15.828H2.93483L5.12969 4.9917H2.19485Z" fill="#3399FF"/>
<path d="M13.8632 2.5084H8.62695L9.12236 0H22.5361L22.0156 2.5084H16.7793L14.1392 15.828H11.2043L13.8632 2.5084Z" fill="#3399FF"/>
<path d="M5.59303 2.50841L6.09472 0.0250854H3.15988L2.6582 2.50841H5.59303Z" fill="white"/>
<path d="M36.4463 5.08575V15.828H22.2676V5.08575H24.7384V13.8025H28.131V5.08575H30.6017V13.8025H33.9756V5.08575H36.4463Z" fill="white"/>
<path d="M43.2781 11.501H41.5598V15.828H39.1016V5.08575H41.5723V9.43156H43.3533L46.1753 5.08575H48.8028L45.2848 10.2719L48.9094 15.828H46.0875L43.2781 11.501Z" fill="white"/>
<path d="M52.1254 15.295C51.2559 14.8378 50.5291 14.15 50.0246 13.3071C49.5273 12.4406 49.2656 11.459 49.2656 10.46C49.2656 9.46101 49.5273 8.47942 50.0246 7.61298C50.5273 6.76857 51.2546 6.08036 52.1254 5.62507C53.0529 5.1294 54.0902 4.87493 55.1418 4.88509C56.1879 4.86746 57.2215 5.11559 58.1456 5.60626C59.0233 6.07244 59.7576 6.76875 60.2696 7.62052C60.7817 8.47228 61.0522 9.44737 61.0522 10.4412C61.0522 11.435 60.7817 12.4101 60.2696 13.2619C59.7576 14.1137 59.0233 14.81 58.1456 15.2762C57.2201 15.7633 56.1875 16.0112 55.1418 15.9973C54.0936 16.0169 53.0571 15.7756 52.1254 15.295ZM56.86 13.4576C57.3664 13.1716 57.7833 12.7503 58.0641 12.241C58.3525 11.6916 58.5031 11.0805 58.5031 10.46C58.5031 9.83957 58.3525 9.22841 58.0641 8.67905C57.7806 8.17013 57.3645 7.74753 56.86 7.45621C56.3318 7.17243 55.7414 7.02391 55.1418 7.02391C54.5421 7.02391 53.9518 7.17243 53.4235 7.45621C52.9163 7.74392 52.4993 8.1674 52.2195 8.67905C51.9311 9.22841 51.7804 9.83957 51.7804 10.46C51.7804 11.0805 51.9311 11.6916 52.2195 12.241C52.4978 12.7522 52.9153 13.174 53.4235 13.4576C53.9504 13.7457 54.5413 13.8968 55.1418 13.8968C55.7423 13.8968 56.3332 13.7457 56.86 13.4576Z" fill="white"/>
<path d="M72.2057 5.08575V15.828H69.7475V7.11129H66.0664L65.9912 9.35631C65.9693 10.5997 65.8455 11.8393 65.6212 13.0625C65.4919 13.86 65.1568 14.61 64.6492 15.2385C64.4086 15.4929 64.1161 15.6924 63.7914 15.8233C63.4667 15.9543 63.1176 16.0136 62.7679 15.9973C62.3447 15.989 61.9239 15.9322 61.5137 15.828L61.6767 13.7272C61.8209 13.7717 61.9712 13.7928 62.122 13.7899C62.7114 13.7899 63.1295 13.4387 63.3762 12.7364C63.6647 11.6625 63.8143 10.5561 63.8214 9.44411L63.9719 5.08575H72.2057Z" fill="white"/>
<path d="M82.1624 13.5265H77.177L76.2238 15.828H73.6777L78.4625 5.08575H80.9208L85.7243 15.828H83.1156L82.1624 13.5265ZM81.3785 11.6452L79.6791 7.53145L77.9796 11.639L81.3785 11.6452Z" fill="white"/>
</svg>
