<svg width="123" height="38" viewBox="0 0 123 38" fill="none" xmlns="http://www.w3.org/2000/svg">
<path d="M117.787 11.134H113.241C112.972 11.134 112.972 11.134 112.92 11.4486C112.746 12.2807 111.755 16.5224 111.642 17.0906V17.1515C111.642 17.1677 111.637 17.1832 111.627 17.1946C111.617 17.206 111.604 17.2124 111.59 17.2124H107.479C107.45 17.2098 107.424 17.1948 107.405 17.1704C107.385 17.1459 107.375 17.1138 107.375 17.0805C107.368 16.9915 107.386 16.9024 107.427 16.8268C107.488 16.7659 108.426 12.4633 108.644 11.5095C108.642 11.4384 108.663 11.3693 108.704 11.3167C108.704 11.2558 108.704 11.1949 108.652 11.1949H108.426H103.776C103.446 11.1949 103.446 11.1949 103.394 11.5095C103.229 12.2705 100.569 24.3056 100.065 26.396C99.9608 26.7714 99.9608 26.7714 100.343 26.7714H104.993H105.158C105.323 26.7714 105.323 26.7714 105.376 26.5786C105.428 26.3858 105.428 26.4568 105.428 26.3249C105.819 24.681 106.149 23.098 106.54 21.4541C106.592 21.1395 106.592 21.1395 106.871 21.1395H110.756C110.808 21.1395 110.808 21.2105 110.808 21.2105C110.808 21.2105 110.756 21.3932 110.756 21.4541C110.364 23.1081 110.034 24.6912 109.643 26.3351C109.591 26.6496 109.591 26.6496 109.86 26.6496H114.458C114.788 26.6496 114.736 26.6496 114.841 26.3351C115.292 24.2447 118.004 12.2096 118.169 11.2659C118.169 11.1949 118.23 11.1949 118.23 11.134V11.0731C118.085 11.1106 117.936 11.131 117.787 11.134Z" fill="white"/>
<path d="M61.4482 11.0426C61.4482 10.9818 61.4482 10.9209 61.3352 10.9209H61.0658H53.1305H52.9654C52.9011 10.9113 52.8359 10.9234 52.7774 10.9558C52.7188 10.9881 52.6695 11.0394 52.6351 11.1035C51.8616 12.1792 51.0446 13.2548 50.2711 14.3305L49.4019 15.467C49.3498 15.5279 49.3498 15.5989 49.2976 15.5989C49.2945 15.5103 49.3125 15.4225 49.3498 15.3452C49.68 14.0057 49.9582 12.6764 50.2884 11.3471C50.2884 11.2253 50.3493 11.1644 50.3493 11.0325C50.3493 10.9006 50.3493 10.8397 50.2363 10.8397H49.9929H37.6251H37.4773C37.4477 10.8354 37.4176 10.8387 37.3891 10.8492C37.3606 10.8597 37.3344 10.8772 37.3122 10.9006C37.26 10.9615 37.3122 11.0223 37.3643 11.0934C37.4165 11.1644 37.4165 11.1543 37.4165 11.2151C37.964 12.1081 38.4507 12.991 38.9983 13.884C39.1634 14.1376 39.1634 14.1376 38.9983 14.3913C38.4507 15.2133 31.7497 24.5389 31.176 25.3913C31.0717 25.5131 30.9588 25.7059 30.8458 25.8277H30.5242C30.4634 25.8277 30.4112 25.8277 30.4112 25.7668C30.4069 25.7172 30.3886 25.6708 30.3591 25.6349C30.3591 25.574 33.0708 13.4578 33.5749 11.134C33.5749 11.0731 33.627 11.0122 33.627 10.9513C33.627 10.8904 33.627 10.8194 33.5749 10.8194H33.2968H29.1944H21.3113C21.2592 10.8194 21.1462 10.7484 21.094 10.8803C21.0419 11.0122 21.1462 11.0629 21.207 11.134C21.7459 12.0168 22.2934 12.9707 22.841 13.8637C22.841 13.9245 22.8931 13.9246 22.8931 13.9854C22.9058 13.9968 22.916 14.0114 22.923 14.0281C22.9301 14.0448 22.9337 14.0632 22.9337 14.0818C22.9337 14.1005 22.9301 14.1188 22.923 14.1355C22.916 14.1523 22.9058 14.1669 22.8931 14.1782C22.8931 14.2391 22.8323 14.2391 22.8323 14.3102C22.0675 15.3249 15.1404 25.0564 15.01 25.2391C14.9487 25.3044 14.8738 25.3498 14.7928 25.371H14.5146L14.4625 25.3C14.4625 25.2391 13.1066 19.2114 13.0545 19.2114L13.2718 18.9577C14.3756 17.3849 18.1129 11.9458 18.6083 11.2456C18.6604 11.1847 18.6604 11.1238 18.7126 11.0629C18.7647 11.002 18.7126 10.931 18.6604 10.931H18.3823H14.0366H12.7416C12.6773 10.9214 12.6121 10.9336 12.5536 10.9659C12.495 10.9983 12.4457 11.0496 12.4113 11.1137C12.0289 11.6819 9.27372 15.4162 8.56103 16.36L8.39589 16.5528C8.37404 16.5767 8.34785 16.5946 8.31926 16.6052C8.29068 16.6157 8.26043 16.6186 8.23075 16.6137H7.90917C7.84833 16.6137 7.79619 16.5528 7.84833 16.4919C7.90048 16.431 7.90917 16.2991 7.90917 16.1672C8.07431 15.4061 8.90868 11.8646 9.01298 11.1644C9.07382 10.8498 9.07382 10.8498 8.7957 10.8498H4.25879C3.98066 10.8498 3.98066 10.8498 3.86767 11.1644C3.70254 11.7124 0.547558 25.8987 0.451953 26.1219C0.449945 26.1535 0.438312 26.1831 0.41917 26.2054C0.400029 26.2278 0.374652 26.2414 0.347656 26.2437V26.3147H5.32783C5.49296 26.3147 5.49296 26.3147 5.54511 26.1219C5.59726 25.9291 6.31865 22.7631 6.41425 22.3876C6.50986 22.0122 6.57939 21.4946 6.69238 21.0583C6.74453 20.8655 6.74453 20.8655 6.90966 20.8655H8.05693C8.16992 20.8655 8.22206 20.9365 8.27421 21.0583C8.32636 21.1801 8.33505 21.1902 8.32636 21.2511C8.4915 21.9513 9.52577 25.8784 9.57792 25.9494V26.1219C9.63007 26.5075 9.68222 26.4365 9.8995 26.4365H9.96034H20.138C20.4074 26.4365 20.4074 26.5075 20.6334 26.1219C20.6855 26.061 20.9028 25.6146 20.9028 25.6146C20.9028 25.6146 20.9637 25.5537 20.9637 25.4928C20.9638 25.5017 20.9622 25.5106 20.959 25.5187C20.9559 25.5268 20.9513 25.5341 20.9455 25.5399C20.9396 25.5457 20.9328 25.5499 20.9254 25.5523C20.9181 25.5547 20.9104 25.5552 20.9028 25.5537C20.9027 25.5447 20.9043 25.5359 20.9074 25.5278C20.9106 25.5196 20.9152 25.5124 20.921 25.5066C20.9268 25.5008 20.9337 25.4965 20.941 25.4941C20.9484 25.4918 20.9561 25.4913 20.9637 25.4928L21.0158 25.4319H24.953C25.0138 25.4319 25.0138 25.4928 25.0138 25.5638V25.6247C25.0138 25.6856 24.953 25.7465 24.953 25.8175C24.9102 25.8921 24.8917 25.9821 24.9009 26.0712C24.9009 26.193 24.8487 26.2539 24.84 26.3858C24.8313 26.5177 24.84 26.5075 24.9009 26.5075H25.1181L36.7733 26.5583H36.9558C37.0167 26.5583 37.0688 26.4974 37.121 26.4974L37.234 26.3655C37.9466 25.3507 43.5526 17.5168 43.6047 17.5168C43.6569 17.5168 43.7177 17.4559 43.7177 17.395C43.7316 17.395 43.7448 17.4014 43.7546 17.4129C43.7644 17.4243 43.7699 17.4398 43.7699 17.4559V17.6487C43.7699 17.6487 42.275 24.752 42.1098 25.5029C42.049 25.8175 41.936 26.193 41.8839 26.5177C41.8317 26.6496 41.8839 26.7105 41.9968 26.7105H42.1707H47.7592H47.9765C48.0069 26.715 48.0378 26.7108 48.0665 26.6985C48.0952 26.6861 48.121 26.6659 48.1417 26.6395L48.246 26.5177C48.8544 25.6957 49.4628 24.8129 50.0625 23.9909L50.723 23.0371C50.7752 22.9762 50.836 22.9762 50.836 22.9153C51.5661 22.0629 52.2266 21.0481 52.9393 20.0334C53.0423 19.9365 53.118 19.8057 53.1566 19.6579C53.1566 19.597 53.1566 19.597 53.2087 19.597L53.2696 19.526L53.3217 19.4651L53.3739 19.4042L53.4347 19.3434C53.4348 19.3523 53.4333 19.3611 53.4301 19.3693C53.427 19.3774 53.4223 19.3846 53.4165 19.3904C53.4107 19.3962 53.4039 19.4005 53.3965 19.4029C53.3891 19.4053 53.3814 19.4057 53.3739 19.4042C53.3738 19.3953 53.3753 19.3865 53.3785 19.3783C53.3816 19.3702 53.3863 19.363 53.3921 19.3572C53.3979 19.3514 53.4047 19.3471 53.4121 19.3447C53.4195 19.3423 53.4272 19.3419 53.4347 19.3434L53.4695 19.3231L53.5216 19.252L53.5825 19.1911C53.5893 19.1911 53.5961 19.1896 53.6024 19.1865C53.6088 19.1834 53.6145 19.179 53.6193 19.1733C53.6242 19.1677 53.628 19.1609 53.6307 19.1536C53.6333 19.1462 53.6346 19.1383 53.6346 19.1303V19.0694C53.6346 18.9983 53.6346 18.9983 53.6868 18.9983L53.7476 18.9375L53.7998 18.8766L53.8519 18.8157C53.8519 18.8157 53.9127 18.8157 53.9127 18.7548V18.6838C53.9127 18.6229 53.9127 18.6229 53.9649 18.6229L54.017 18.562L54.0779 18.5011C54.0855 18.5012 54.0931 18.4994 54.1001 18.4957C54.107 18.492 54.1132 18.4866 54.1182 18.4798C54.1232 18.4731 54.1268 18.4651 54.1289 18.4565C54.1309 18.4479 54.1313 18.4389 54.13 18.4301L54.1822 18.3692L54.243 18.3083L54.2952 18.2474L54.3473 18.1764C54.3612 18.1764 54.3744 18.17 54.3842 18.1585C54.394 18.1471 54.3995 18.1316 54.3995 18.1155V18.0546C54.3995 17.9937 54.3995 17.9937 54.4603 17.9937L54.5125 17.9328L54.5646 17.8618L54.6254 17.8009L54.6776 17.74C54.6776 17.7562 54.6721 17.7717 54.6623 17.7831C54.6525 17.7945 54.6393 17.8009 54.6254 17.8009C54.6254 17.7848 54.6309 17.7693 54.6407 17.7579C54.6505 17.7465 54.6638 17.74 54.6776 17.74L54.7297 17.6792L54.7906 17.6081C54.7996 17.7211 54.7783 17.8346 54.7297 17.9328C54.6776 18.1865 54.6254 18.4402 54.5646 18.6939C54.5646 18.7548 54.5125 18.8766 54.5125 18.9375C53.9562 21.4743 53.4 23.9402 52.9045 26.4771C52.8437 26.7917 52.8437 26.7917 53.1218 26.7917H57.7717C58.102 26.7917 58.0499 26.7917 58.1542 26.4771C58.5974 24.3867 59.1015 22.2354 59.5448 20.145C59.5448 20.0232 59.5969 19.9522 59.5969 19.8304C59.6169 19.8045 59.6319 19.7739 59.6409 19.7407C59.6499 19.7074 59.6527 19.6723 59.6491 19.6376V19.5767C59.6717 19.5526 59.689 19.5226 59.6996 19.489C59.7102 19.4555 59.7137 19.4194 59.7099 19.3839V19.3231C59.7099 19.2622 59.7099 19.2622 59.7621 19.1911V19.0694C59.7621 19.0085 59.8229 19.0085 59.8229 18.9375V18.6229C59.8657 18.5483 59.8842 18.4583 59.8751 18.3692C60.3705 16.0251 60.9267 13.752 61.4308 11.408C61.4055 11.2869 61.4115 11.1597 61.4482 11.0426ZM27.0042 15.9744C27.3648 15.5416 27.696 15.0768 27.995 14.5841C27.8907 14.9596 27.8299 15.3452 27.7169 15.7207C27.5517 16.4817 26.8477 20.216 26.6652 20.9771C26.6131 21.3627 26.5001 21.4236 26.1698 21.4236H23.3277C23.2147 21.4236 23.1626 21.3526 23.2756 21.2308C23.3886 21.109 23.4407 20.9771 23.545 20.8452C23.9883 20.0943 26.4566 16.6847 27.0042 15.9744Z" fill="white"/>
<path d="M100.082 13.2853C100.186 12.9098 100.186 12.9707 100.021 12.6561L97.5702 8.45504C97.4315 8.25723 97.3066 8.04685 97.1965 7.82589C97.1965 7.82589 94.8498 3.76686 94.2501 2.7521C93.8155 1.99103 93.381 1.22997 92.8942 0.468898C92.8334 0.33698 92.7813 0.276094 92.7291 0.154323C92.677 0.0325526 92.6161 0.0832905 92.564 0.154323C92.5118 0.225357 92.5031 0.215209 92.451 0.215209C92.0164 0.590669 91.5818 1.03716 91.1386 1.41262C89.8783 2.54915 88.6702 3.68568 87.4013 4.88309C87.184 5.0759 79.0662 12.646 78.3535 13.2751C78.327 13.3158 78.2928 13.3488 78.2537 13.3717C78.2145 13.3946 78.1714 13.4067 78.1276 13.4071C78.1276 13.2751 78.1276 13.2143 78.1884 13.1534C78.2405 12.8997 78.6838 10.6774 78.7447 10.4237C79.0228 9.09434 79.3009 7.76501 79.6138 6.43567V6.25302C79.6138 6.18198 79.6138 6.18198 79.5616 6.1211H79.3444H68.7843C68.454 6.1211 68.454 6.1211 68.4019 6.49656C68.1238 7.82589 67.7848 9.09434 67.5327 10.4237C67.5327 10.5556 67.4719 10.6774 67.4719 10.8093C67.4719 10.9412 67.4198 10.9919 67.4198 11.1239C67.1938 12.1995 66.9157 13.2143 66.6984 14.2899C66.6984 14.3508 66.6375 14.4827 66.6375 14.5436C66.6375 14.6045 66.5854 14.6045 66.5854 14.5436L66.4811 14.4117C66.2638 14.0971 66.0378 13.7825 65.8205 13.4578C65.2208 12.6358 64.6211 11.7429 64.0823 10.9209C64.0214 10.86 64.0214 10.789 63.9693 10.789C63.9171 10.789 63.9171 10.9209 63.8563 10.9818V11.1137C63.4739 12.8185 63.0827 14.5943 62.7003 16.2991C62.7003 16.431 62.6395 16.5528 62.6395 16.6137C62.6395 16.6746 62.5873 16.7456 62.5873 16.8065C62.1962 18.5823 60.9273 24.1533 60.7534 24.8535V24.9753C60.7496 25.0108 60.7532 25.0468 60.7637 25.0804C60.7743 25.1139 60.7917 25.144 60.8143 25.1681C60.8175 25.2002 60.8293 25.2302 60.848 25.2539C60.8668 25.2776 60.8915 25.2938 60.9186 25.3C61.4661 26.1829 65.1165 32.2815 65.8727 33.55L66.0378 33.7428C66.0987 33.8037 66.1508 33.9356 66.203 33.9965C66.9678 35.2649 67.7326 36.6044 68.5496 37.8729H68.6018L68.7669 37.6801C69.8099 36.6653 70.8529 35.7317 71.8958 34.717L72.061 34.5242C72.1131 34.4633 72.1653 34.4633 72.2261 34.4024C72.878 33.7732 79.9614 27.0758 81.439 25.6856C81.665 25.4421 81.9344 25.2493 82.1517 24.9956C82.2125 24.9956 82.2125 24.9347 82.2647 24.9347C82.3168 24.9347 82.3168 24.8738 82.3777 24.9347C82.4385 24.9956 82.3168 25.0565 82.3168 25.1275C81.8736 27.086 81.4477 28.9836 81.0479 30.9522C80.987 31.2668 80.987 31.2668 81.2652 31.2668H91.9295C92.2076 31.2668 92.2076 31.2668 92.2598 30.9522C92.4336 30.252 93.8677 23.8489 94.0937 22.8342C94.0937 22.7124 94.0937 22.5805 94.2066 22.5196C94.3196 22.4587 94.3109 22.6414 94.3631 22.7733C95.1801 24.2345 95.9971 25.6349 96.8749 27.0961C96.9271 27.157 96.9792 27.2788 97.0314 27.3498C97.0835 27.4209 97.1443 27.157 97.1443 27.0352C97.4225 25.6958 98.7523 20.0639 98.8044 19.8102C99.1955 18.1663 99.5866 16.5224 99.969 14.8074C99.946 14.2964 99.984 13.7841 100.082 13.2853ZM63.8389 16.2484C64.004 15.6192 64.117 14.919 64.2822 14.2899C64.2822 14.229 64.2822 14.0971 64.3951 14.0971C64.5081 14.0971 64.4994 14.1681 64.5603 14.229L64.6124 14.2899C65.3773 15.4366 66.0813 16.5832 66.8461 17.7198C66.8983 17.8517 66.9504 17.9735 67.1156 17.9126C67.1658 17.8838 67.2079 17.8389 67.2372 17.7832C67.2664 17.7275 67.2815 17.6633 67.2807 17.598C67.6197 16.015 67.9499 14.3711 68.2802 12.7881C68.3932 12.2096 69.0624 9.29729 69.1493 8.66814C69.2102 8.22165 69.3145 8.16076 69.6969 8.16076H72.1131C72.4955 8.16076 72.5477 8.23179 72.4347 8.66814C72.3217 9.10449 69.9837 20.3379 69.7317 21.4135C69.7317 21.5353 69.6795 21.5961 69.6795 21.7281C69.6795 21.86 69.6274 21.9818 69.5665 22.1035C69.3492 23.1792 69.0711 24.2548 68.8451 25.2696C68.8451 25.3406 68.8451 25.4624 68.7408 25.4624C68.6366 25.4624 68.6279 25.3305 68.6279 25.3305C68.1933 24.6404 64.708 18.6635 63.8389 17.2631C63.726 17.1038 63.6672 16.9015 63.6738 16.6949C63.7867 16.7558 63.8389 16.3803 63.8389 16.2484ZM96.4403 23.2908C96.4403 23.4126 96.4403 23.5445 96.3273 23.6054C96.2144 23.6663 96.1622 23.4735 96.1101 23.4126L93.5982 19.729C93.4939 19.5971 93.4418 19.3434 93.2158 19.4043C92.9899 19.4652 93.0507 19.7188 92.9985 19.9117L92.5031 22.1949C92.225 23.3923 91.0604 28.6487 90.9995 28.9734C90.9839 29.0604 90.9438 29.1387 90.8854 29.1958C90.8271 29.2529 90.754 29.2853 90.6779 29.288H88.592C88.4269 29.288 88.3226 29.1561 88.3747 28.9734C88.4269 28.7908 88.4356 28.7806 88.4356 28.7197C88.6528 27.705 91.2603 15.5279 91.5905 14.0261C91.6559 13.8456 91.6941 13.6534 91.7035 13.4578C91.7557 13.3259 91.7557 13.265 91.8165 13.1331C91.9208 12.7576 91.9816 12.3111 92.0946 11.9357C92.0946 11.8748 92.1468 11.7429 92.1468 11.682C92.1468 11.6211 92.1989 11.6211 92.1989 11.682C92.1989 11.7429 92.3119 11.8037 92.3119 11.8748L93.5635 13.9043C93.6765 14.0971 95.9015 18.0344 96.8836 19.5565C96.9864 19.6929 97.056 19.859 97.085 20.0375C97.1141 20.216 97.1015 20.4003 97.0487 20.5712C96.7927 21.4604 96.5894 22.369 96.4403 23.2908ZM98.1004 15.8729C98.1004 16.0048 98.1004 16.1266 97.9874 16.1266C97.9448 16.1356 97.9009 16.1246 97.8651 16.0961C97.8294 16.0677 97.8046 16.024 97.7962 15.9744C97.4659 15.4569 93.8155 9.6829 92.451 7.46058C92.2858 7.20689 92.1815 7.01408 92.0164 6.7604C91.8513 6.50671 91.9034 6.56759 91.747 6.68936C91.0864 7.32866 90.3737 7.95781 89.7132 8.58696C88.1748 9.97718 84.4984 13.3868 84.3941 13.5085C83.6205 14.2696 82.8035 14.9596 82.03 15.7207C81.9094 15.8388 81.8141 15.9882 81.7519 16.1571C81.4824 17.3646 81.2565 18.5722 80.9783 19.7087C80.9814 19.7433 80.9784 19.7783 80.9694 19.8114C80.9605 19.8446 80.9457 19.8753 80.9262 19.9015V19.9624H80.9783C81.0305 19.9624 81.0305 19.9015 81.0913 19.8305C81.4737 19.455 81.9083 19.0796 82.2994 18.7041L87.436 13.9449C87.667 13.7511 87.8876 13.541 88.0966 13.3157C88.1487 13.2548 88.253 13.1838 88.3139 13.1229C88.8093 12.6155 89.3568 12.1792 89.8523 11.7327L89.9566 11.6109H90.0174V11.6718C90.021 11.7064 90.0183 11.7416 90.0093 11.7748C90.0003 11.8081 89.9853 11.8387 89.9652 11.8646C89.9131 12.2401 89.8001 12.5547 89.748 12.9403C89.748 13.062 89.6871 13.1331 89.6871 13.2548C89.6871 13.3766 89.635 13.3868 89.635 13.4476C89.3047 15.0307 86.367 27.4412 86.0889 28.669C85.9759 29.1054 85.9237 29.1054 85.5413 29.1054H83.2381C82.6905 29.1054 82.6384 29.0445 82.8035 28.4052C83.0817 27.3295 84.1942 22.2659 84.4114 21.1902C84.4636 20.9974 84.5766 20.8046 84.3593 20.6829C84.142 20.5611 84.0812 20.7438 83.9769 20.8655C83.2642 21.5657 82.5515 22.2557 81.7779 22.9559C81.2304 23.4633 77.3366 27.1164 76.1807 28.253C75.7983 28.6386 72.5651 31.6625 72.1739 32.0482C71.5742 32.6164 69.3232 34.7576 68.9408 35.0924C68.5583 35.4273 68.6105 35.3461 68.3932 35.0315C68.1759 34.717 62.9437 25.8987 62.457 25.1782C61.9702 24.4578 62.0224 24.61 62.2397 23.6561C62.2397 23.5952 62.7438 21.3831 62.7959 21.0685C62.7895 21.0177 62.7969 20.9658 62.8172 20.9202C62.8375 20.8747 62.8696 20.8378 62.9089 20.8148C63.0132 20.8148 63.0132 20.8757 63.0654 20.9366C63.2913 21.2511 68.8451 30.0694 69.1493 30.4651C69.1493 30.5362 69.2015 30.5362 69.2015 30.597C69.2015 30.6579 69.2536 30.6579 69.3058 30.597C69.3579 30.5362 69.4188 30.5362 69.4709 30.4651C69.9142 30.0288 76.8238 23.6561 78.6404 21.9513L78.8055 21.7585C78.8876 21.7134 78.9568 21.6415 79.0046 21.5514C79.0524 21.4614 79.0768 21.3571 79.0749 21.2511C79.1879 20.4901 79.353 19.729 79.5182 18.9679C79.579 18.5316 79.692 18.146 79.7442 17.7096V17.5777H79.692L79.579 17.7096C78.3188 18.8462 73.6515 23.1995 72.8866 23.9504L71.244 25.4725C71.1774 25.547 71.1011 25.6087 71.018 25.6552C71.0097 25.5455 71.0309 25.4355 71.0788 25.3406C71.357 24.2041 73.13 16.2078 73.13 16.0353C73.5124 14.3203 74.8683 9.00301 74.9552 8.37386C75.0682 7.98825 75.1203 7.92737 75.4506 7.92737H77.3627C77.6408 7.92737 77.693 8.04914 77.6322 8.30283C77.6196 8.41205 77.6022 8.52043 77.58 8.62755C77.4149 9.31758 76.3024 14.7161 76.0851 15.9034C76.0242 16.1571 75.9721 16.4818 75.9199 16.7253C75.8678 16.9689 75.8591 16.979 75.9721 17.1109C76.0851 17.2428 76.1894 17.1109 76.3024 17.05C76.3627 16.969 76.4366 16.9034 76.5196 16.8572C77.4496 15.9744 78.3796 15.1524 79.2574 14.2696C80.3004 13.3259 91.2776 3.10727 92.1033 2.3462C92.3206 2.1534 92.3728 2.1534 92.5379 2.40709L93.3027 3.67553C93.6852 4.31483 96.4056 9.01316 96.675 9.45965C97.3355 10.5962 97.9874 11.7429 98.6393 12.8286C98.6591 12.8526 98.674 12.8815 98.6831 12.9131C98.6921 12.9447 98.6949 12.9782 98.6914 13.0113C98.6946 13.0999 98.6765 13.1877 98.6393 13.265C98.4307 14.3609 98.2655 15.1118 98.1004 15.8729Z" fill="white"/>
<path d="M120.118 10.7586C119.711 10.7525 119.315 10.6061 118.98 10.3378C118.644 10.0695 118.384 9.69119 118.233 9.25065C118.081 8.81012 118.044 8.32703 118.127 7.86227C118.211 7.3975 118.41 6.97186 118.7 6.63896C118.99 6.30607 119.357 6.08083 119.757 5.99162C120.156 5.90242 120.569 5.95324 120.944 6.13768C121.319 6.32212 121.638 6.63192 121.862 7.02806C122.087 7.4242 122.205 7.88894 122.204 8.36372C122.192 9.00174 121.968 9.60931 121.578 10.0567C121.188 10.5042 120.664 10.756 120.118 10.7586ZM120.118 6.38495C119.774 6.38495 119.438 6.50397 119.152 6.72698C118.866 6.94999 118.643 7.26695 118.512 7.6378C118.38 8.00864 118.346 8.41671 118.413 8.8104C118.48 9.20409 118.646 9.56571 118.889 9.84954C119.132 10.1334 119.441 10.3267 119.779 10.405C120.116 10.4833 120.465 10.4431 120.783 10.2895C121.101 10.1359 121.372 9.87575 121.563 9.542C121.754 9.20825 121.856 8.81586 121.856 8.41446C121.856 7.87795 121.674 7.36327 121.35 6.98295C121.026 6.60263 120.586 6.38763 120.126 6.38495H120.118Z" fill="white"/>
<path d="M120.176 8.73919H119.681L119.524 9.88586H119.09L119.533 6.90248H120.35C120.47 6.89075 120.59 6.90814 120.704 6.95356C120.818 6.99897 120.922 7.07141 121.011 7.16631C121.091 7.23822 121.15 7.33741 121.179 7.45014C121.209 7.56287 121.208 7.68355 121.176 7.79546C121.179 7.98307 121.119 8.16475 121.011 8.30284C120.905 8.44444 120.77 8.55264 120.62 8.61742L121.002 9.82498H120.507L120.176 8.73919ZM119.742 8.35358H120.176C120.31 8.35111 120.442 8.30923 120.559 8.23181C120.616 8.19405 120.662 8.13717 120.692 8.06846C120.721 7.99976 120.732 7.92237 120.724 7.8462C120.732 7.71799 120.714 7.5893 120.672 7.47074C120.598 7.39105 120.503 7.34432 120.402 7.33882H119.959L119.742 8.35358Z" fill="white"/>
</svg>
