<svg xmlns="http://www.w3.org/2000/svg" viewBox="0 0 40 40"><defs><style>.cls-1{fill:#272525;}</style></defs><title>элементы</title><g id="Designed_By_Freepik" data-name="Designed By Freepik"><path class="cls-1" d="M30.11,11.68H4.67a.89.89,0,0,0-.89.89V27.43a.89.89,0,0,0,.89.89H35.33a.89.89,0,0,0,.89-.89V12.57a.89.89,0,0,0-.89-.89Zm5.22,15.75H4.67V12.57H35.33Z"/><path class="cls-1" d="M25.62,14.1h-3l-.38-.2a5.24,5.24,0,0,0-4.48,0l-.38.2H9.16A3.19,3.19,0,0,1,6,17.29v5.42A3.19,3.19,0,0,1,9.16,25.9h8.22l.38.2a5.17,5.17,0,0,0,4.48,0l.38-.2h8.22A3.19,3.19,0,0,1,34,22.71V17.29a3.19,3.19,0,0,1-3.18-3.19H25.62ZM14.38,25H10a4.1,4.1,0,0,0-3.09-3.09V18.08A4.1,4.1,0,0,0,10,15h6.27a7.22,7.22,0,0,0,0,10Zm7.67.69a4.75,4.75,0,0,1-4.1,0A6.23,6.23,0,0,1,14.64,20,6.23,6.23,0,0,1,18,14.3a4.8,4.8,0,0,1,4.1,0A6.23,6.23,0,0,1,25.36,20,6.23,6.23,0,0,1,22.05,25.7Zm11.09-7.62v3.84A4.1,4.1,0,0,0,30.05,25H23.78a7.22,7.22,0,0,0,0-10h6.27A4.1,4.1,0,0,0,33.14,18.08Z"/><path class="cls-1" d="M21.67,19.7a4.18,4.18,0,0,0-1.12-.63,3.69,3.69,0,0,1-.87-.46.38.38,0,0,1-.12-.14.34.34,0,0,1,0-.17.35.35,0,0,1,.11-.27.73.73,0,0,1,.53-.16,2.21,2.21,0,0,1,.69.1,2.68,2.68,0,0,1,.41.19l.26.15a.25.25,0,0,0,.19,0,.21.21,0,0,0,.13-.13L22.3,17a.24.24,0,0,0-.1-.27L22,16.64a3.34,3.34,0,0,0-1.15-.4v-.85a.22.22,0,0,0-.22-.22H19.48a.22.22,0,0,0-.22.22v.95a2.37,2.37,0,0,0-1,.64,2.11,2.11,0,0,0-.41,2.25,2.3,2.3,0,0,0,.76.9,5.61,5.61,0,0,0,1.13.57,2.25,2.25,0,0,1,.73.43.55.55,0,0,1,.13.18.65.65,0,0,1,0,.21.46.46,0,0,1-.18.38.94.94,0,0,1-.61.18h0a2.33,2.33,0,0,1-1.26-.38l-.27-.18a.25.25,0,0,0-.19,0,.2.2,0,0,0-.14.13l-.43,1.2a.23.23,0,0,0,.08.26l.16.11a2.74,2.74,0,0,0,.86.4,5.05,5.05,0,0,0,.56.12v.89a.22.22,0,0,0,.22.22h1.18a.22.22,0,0,0,.22-.22v-1a2.46,2.46,0,0,0,1.13-.71h0a2.23,2.23,0,0,0,.54-1.46,2.28,2.28,0,0,0-.13-.8A2.24,2.24,0,0,0,21.67,19.7Zm-.07,2.92a2.06,2.06,0,0,1-1.06.62.22.22,0,0,0-.17.22v.92h-.74v-.86a.23.23,0,0,0-.2-.22,3.14,3.14,0,0,1-.68-.13,2.24,2.24,0,0,1-.73-.33h0l.28-.78,0,0a2.73,2.73,0,0,0,1.5.46h0a1.45,1.45,0,0,0,.9-.29.91.91,0,0,0,.33-.72,1,1,0,0,0-.07-.39,1.31,1.31,0,0,0-.22-.32,2.74,2.74,0,0,0-.89-.52,4.63,4.63,0,0,1-1-.53,1.74,1.74,0,0,1-.61-.7,1.72,1.72,0,0,1,.32-1.78,2,2,0,0,1,1-.55.23.23,0,0,0,.17-.22v-.89h.72v.82a.23.23,0,0,0,.2.22,2.77,2.77,0,0,1,1.16.36h0l-.29.77,0,0a2.26,2.26,0,0,0-.49-.23,2.77,2.77,0,0,0-.83-.13,1.16,1.16,0,0,0-.84.29.84.84,0,0,0-.25.59.9.9,0,0,0,.08.35.86.86,0,0,0,.22.29,4,4,0,0,0,1,.54,4.08,4.08,0,0,1,1,.56,1.83,1.83,0,0,1,.55.76,1.89,1.89,0,0,1,.1.65A1.76,1.76,0,0,1,21.6,22.62Z"/></g></svg>