<svg xmlns="http://www.w3.org/2000/svg" viewBox="0 0 40 40"><defs><style>.cls-1{fill:#272525;}</style></defs><title>элементы</title><g id="Designed_By_Freepik" data-name="Designed By Freepik"><path class="cls-1" d="M32.08,11.61a1.88,1.88,0,0,0-1.34-.56H9.26a1.92,1.92,0,0,0-1.35.56A1.89,1.89,0,0,0,7.36,13V27A1.91,1.91,0,0,0,9.26,29H30.74a1.92,1.92,0,0,0,1.35-.56A1.89,1.89,0,0,0,32.64,27V13a1.89,1.89,0,0,0-.55-1.35ZM31.62,27a.89.89,0,0,1-.88.88H9.26a.9.9,0,0,1-.62-.25A.92.92,0,0,1,8.38,27V13a.89.89,0,0,1,.88-.88H30.74a.9.9,0,0,1,.62.25.92.92,0,0,1,.26.63Z"/><path class="cls-1" d="M25.14,19.61l-4.83-3.05h0L17,14.47a.5.5,0,0,0-.78.43l-.06,10.21a.51.51,0,0,0,.26.45.59.59,0,0,0,.26.07.56.56,0,0,0,.27-.08l8.19-5.06a.52.52,0,0,0,0-.88Zm-7.95,4.58,0-8.36L23.9,20Z"/></g></svg>