<svg xmlns="http://www.w3.org/2000/svg" viewBox="0 0 40 40"><defs><style>.cls-1{fill:#272525;}</style></defs><title>элементы</title><g id="Designed_By_Freepik" data-name="Designed By Freepik"><path class="cls-1" d="M15.47,27.88a11,11,0,0,0,7.43,3.23h.37a11.08,11.08,0,0,0,7.81-3.23,11,11,0,0,0-10-18.61H21a1.53,1.53,0,0,0-1,.87,2,2,0,0,0,.2,1.6l0,.06s0,0,0,.08l0,0h0A3.86,3.86,0,0,1,15,17l-.77-.45v.21a1.54,1.54,0,0,0-.68.09,1.91,1.91,0,0,0-1,1l0,.1A11,11,0,0,0,15.47,27.88Zm-2-9.62a.87.87,0,0,1,.41-.43.79.79,0,0,1,.61.1l.1.05.23.11.7.36,0-.1a4.89,4.89,0,0,0,5.88-6.66l0-.06-.2-.26-.05-.09,0,0a1,1,0,0,1-.15-.72.55.55,0,0,1,.36-.26,9.45,9.45,0,0,1,1.61-.19,10,10,0,0,1,7.42,17.08,9.9,9.9,0,0,1-7.42,2.92,10,10,0,0,1-9.49-11.82Z"/><path class="cls-1" d="M17.17,24.22A2.32,2.32,0,0,0,16,19.73h0a2.32,2.32,0,0,0-1.64,2.85,2.35,2.35,0,0,0,2.24,1.72A2.47,2.47,0,0,0,17.17,24.22Zm-1.5-.68a1.81,1.81,0,1,1,2.47-.66,1.81,1.81,0,0,1-2.47.66Z"/><path class="cls-1" d="M19.15,27.84a2.29,2.29,0,0,0,1.41,1.08,2.09,2.09,0,0,0,.61.08,2.28,2.28,0,0,0,1.57-.62,2.33,2.33,0,0,0,0-3.4,2.46,2.46,0,0,0-1-.54,2.33,2.33,0,0,0-2.84,1.64h0A2.3,2.3,0,0,0,19.15,27.84Zm.27-1.63a1.8,1.8,0,0,1,2.21-1.27,1.68,1.68,0,0,1,.76.42,1.82,1.82,0,0,1,.52,1.79,1.83,1.83,0,0,1-2.22,1.28,1.84,1.84,0,0,1-1.09-.84A1.76,1.76,0,0,1,19.42,26.21Z"/><path class="cls-1" d="M27.52,22.94a2.28,2.28,0,0,0-1.64.68,2.31,2.31,0,0,0,0,3.28,2.32,2.32,0,1,0,1.64-4Zm1.28,3.6A1.81,1.81,0,0,1,26.24,24h0a1.81,1.81,0,0,1,2.56,2.56Z"/><path class="cls-1" d="M27.34,19.76a2.33,2.33,0,0,0,2.24,1.73,2.47,2.47,0,0,0,.6-.08,2.3,2.3,0,0,0,1.41-1.09,2.26,2.26,0,0,0,.23-1.76A2.32,2.32,0,0,0,29,16.92h0A2.32,2.32,0,0,0,27.34,19.76Zm1.77-2.34a1.81,1.81,0,1,1-1.27,2.21A1.81,1.81,0,0,1,29.11,17.42Z"/><path class="cls-1" d="M24.4,16.62a2.06,2.06,0,0,0,.6.08,2.29,2.29,0,0,0,1.16-.31A2.33,2.33,0,1,0,23,15.54,2.29,2.29,0,0,0,24.4,16.62Zm-1.15-2.71a1.81,1.81,0,0,1,3.49.94A1.76,1.76,0,0,1,25.9,16a1.81,1.81,0,0,1-2.47-.66A1.8,1.8,0,0,1,23.25,13.91Z"/><path class="cls-1" d="M9.25,7.63l-.16.2h0l.15-.2-.31-.24-.31.24c-.12.09-2.92,2.23-2.92,5,0,1.86.64,2.72,1.49,3.12l-.09.55A31.69,31.69,0,0,0,6.85,23c.53,7.49,1,9.45,2,9.57l.57.07v-.26c.84-.6,1.13-3.11,1.52-9.44a35.21,35.21,0,0,0-.22-6.69l-.06-.45h0v-.06c.84-.4,1.48-1.26,1.48-3.12C12.15,10,9.55,7.87,9.25,7.63Zm.69,15.23c-.16,2.67-.46,7.5-1,8.51-.56-1.16-.91-6.21-1.07-8.46a29.65,29.65,0,0,1,.23-6.49c0-.14,0-.28.07-.43a6.45,6.45,0,0,0,.76,0h0a6,6,0,0,0,.73,0l.06.37.06.45h0A34.66,34.66,0,0,1,9.94,22.86ZM11,13a1,1,0,0,0,.12-.39c0,2-.75,2.37-2.21,2.37s-2.2-.37-2.2-2.4A3.15,3.15,0,0,1,6.78,12a1.06,1.06,0,0,0,.5.13c.7,0,.94-.6,1.09-1,.08-.22.18-.47.26-.48a3.05,3.05,0,0,1,.47,1c.31.82.65,1.74,1.32,1.74l.16,0A.62.62,0,0,0,11,13Zm-.61-1.63c.12.45.31,1.13.17,1.36,0,0,0,.05-.1.07-.34.07-.66-.78-.89-1.4s-.49-1.31-.93-1.31h0c-.45,0-.61.46-.74.81s-.29.7-.6.69a.68.68,0,0,1-.56-.37A7.79,7.79,0,0,1,8.92,8.36a8.31,8.31,0,0,1,1.58,1.73.37.37,0,0,0-.16.09C10.12,10.4,10.23,10.79,10.4,11.39Z"/></g></svg>