<svg xmlns="http://www.w3.org/2000/svg" viewBox="0 0 45 45"><defs><style>.cls-1{fill:#39f;}.cls-2{fill:#fff;}</style></defs><title>элементы</title><g id="Designed_By_Freepik" data-name="Designed By Freepik"><circle class="cls-1" cx="22.5" cy="22.5" r="20"/><path class="cls-2" d="M16.08,24.2,11.2,22.61a.64.64,0,0,1-.39-.78c0-.11.11-.2.34-.36,1.09-.76,20-7.56,20-7.56a1.62,1.62,0,0,1,.85-.06.44.44,0,0,1,.32.34,1.55,1.55,0,0,1,0,.43c0,.12,0,.24,0,.42-.11,1.86-3.56,15.75-3.56,15.75a1.12,1.12,0,0,1-.95.84,1.34,1.34,0,0,1-1-.38c-1.45-1.25-6.47-4.62-7.58-5.36a.22.22,0,0,1-.09-.15.31.31,0,0,1,.07-.18S28,17.8,28.22,17c0-.06,0-.09-.14-.07-.58.22-10.64,6.57-11.75,7.27A.59.59,0,0,1,16.08,24.2Z"/></g></svg>