<svg xmlns="http://www.w3.org/2000/svg" viewBox="0 0 45 45"><defs><style>.cls-1{fill:#669;}.cls-2{fill:#fff;fill-rule:evenodd;}</style></defs><title>элементы</title><g id="Designed_By_Freepik" data-name="Designed By Freepik"><circle class="cls-1" cx="22.5" cy="22.5" r="20" transform="translate(-0.99 43.96) rotate(-87.42)"/><path class="cls-2" d="M21.74,31.27h1.57A1.32,1.32,0,0,0,24,31a1.19,1.19,0,0,0,.22-.69s0-2.11.94-2.42,2.2,2,3.52,2.94a2.47,2.47,0,0,0,1.74.53L34,31.27s1.83-.11,1-1.55a11.48,11.48,0,0,0-2.6-3c-2.2-2-1.91-1.71.74-5.24,1.61-2.15,2.26-3.47,2.06-4S33.74,17,33.74,17l-4,0a.9.9,0,0,0-.51.09,1.16,1.16,0,0,0-.35.43,22.36,22.36,0,0,1-1.46,3.08c-1.76,3-2.46,3.14-2.75,2.95-.67-.43-.5-1.73-.5-2.66,0-2.89.44-4.1-.85-4.41a7,7,0,0,0-1.85-.18,8.39,8.39,0,0,0-3.27.33c-.45.22-.8.71-.59.74a1.79,1.79,0,0,1,1.17.58,3.9,3.9,0,0,1,.39,1.79s.23,3.41-.54,3.83c-.54.29-1.27-.3-2.83-3a24.21,24.21,0,0,1-1.41-2.92,1.17,1.17,0,0,0-.33-.44A1.59,1.59,0,0,0,13.5,17L9.75,17s-.56,0-.77.26S9,18,9,18s2.93,6.87,6.26,10.33a9,9,0,0,0,6.51,3Z"/></g></svg>